<?xml version="1.0" standalone="no"?>
<!DOCTYPE svg PUBLIC "-//W3C//DTD SVG 20010904//EN"
 "http://www.w3.org/TR/2001/REC-SVG-20010904/DTD/svg10.dtd">
<svg version="1.0" xmlns="http://www.w3.org/2000/svg"
 width="438.000000pt" height="438.000000pt" viewBox="0 0 438.000000 438.000000"
 preserveAspectRatio="xMidYMid meet">
<metadata>
Created by potrace 1.11, written by Peter Selinger 2001-2013
</metadata>
<g transform="translate(0.000000,438.000000) scale(0.100000,-0.100000)"
fill="#000000" stroke="none">
<path d="M2290 4111 c6 -12 29 -33 50 -47 22 -15 40 -28 40 -30 0 -3 -12 -2
-27 1 -27 4 -62 8 -173 20 -30 3 -71 9 -90 12 -119 20 -242 -7 -480 -107 -120
-50 -154 -61 -172 -56 -33 8 -19 -22 20 -44 l37 -21 -65 -67 c-101 -103 -123
-131 -177 -223 -63 -107 -89 -187 -100 -314 l-6 -70 22 24 c11 13 21 27 21 30
0 3 18 26 39 50 l38 44 0 -134 c0 -74 2 -141 5 -149 3 -8 8 -36 13 -62 4 -27
11 -48 15 -48 4 0 11 -10 15 -22 8 -22 8 -22 12 5 2 15 8 27 12 27 8 0 40
-122 48 -183 5 -37 5 -38 -26 -32 -28 5 -31 3 -37 -32 -11 -54 -8 -112 8 -158
14 -43 82 -102 128 -112 25 -4 29 -12 40 -67 14 -68 48 -138 87 -181 55 -58
168 -112 276 -130 20 -3 37 -9 37 -13 0 -4 -17 -25 -38 -48 -85 -93 -111 -127
-117 -155 -4 -17 -13 -42 -21 -57 -8 -15 -14 -34 -14 -42 0 -9 -6 -24 -13 -35
-14 -20 -36 -89 -43 -135 -3 -14 -7 -30 -9 -37 -2 -7 -7 -52 -11 -100 -4 -48
-8 -91 -10 -94 -2 -3 -6 -70 -10 -150 -4 -79 -11 -152 -15 -161 -36 -69 36
-238 101 -238 11 0 24 -8 29 -18 10 -18 92 -285 88 -287 -1 -1 -19 -9 -40 -19
-52 -24 -72 -69 -53 -122 15 -44 35 -52 126 -48 30 1 250 3 487 3 l433 1 -7
32 c-4 18 -12 39 -20 46 -7 7 -13 18 -13 23 0 16 -38 52 -48 45 -5 -3 -21 7
-36 23 -26 27 -26 28 -8 52 24 30 56 96 87 176 36 95 44 107 58 90 23 -28 46
-27 77 1 28 25 30 33 32 102 2 41 0 111 -4 155 -4 44 -10 139 -14 210 -3 72
-7 132 -9 135 -2 3 -6 34 -10 70 -4 36 -9 68 -12 72 -2 4 -7 29 -10 54 -7 59
-72 207 -129 293 -24 36 -69 92 -101 123 l-57 56 37 7 c20 4 37 11 37 16 0 5
6 9 13 9 7 0 31 9 53 19 22 11 53 23 68 27 15 3 39 23 54 43 15 20 34 43 43
51 9 8 21 45 28 83 17 99 25 113 67 127 21 7 49 26 63 42 13 17 31 36 38 44
18 17 25 135 11 174 -5 17 -19 37 -30 44 -28 20 -28 89 0 231 19 99 30 173 31
214 1 11 7 8 24 -7 13 -12 26 -22 28 -22 7 0 2 128 -12 275 -14 154 -32 198
-124 290 -38 39 -83 80 -100 92 l-30 22 89 0 c77 1 87 3 76 16 -7 8 -21 15
-31 15 -10 0 -49 11 -86 25 -70 27 -140 35 -186 22 -23 -6 -29 -4 -37 17 -14
38 -80 98 -141 128 -63 31 -154 66 -187 73 -13 2 -33 7 -44 11 -17 5 -18 4 -8
-15z"/>
</g>
</svg>
